<?xml version="1.0" encoding="utf-8"?>
<!-- Generator: Adobe Illustrator 24.3.0, SVG Export Plug-In . SVG Version: 6.00 Build 0)  -->
<svg version="1.1" id="Layer_1" xmlns="http://www.w3.org/2000/svg" xmlns:xlink="http://www.w3.org/1999/xlink" x="0px" y="0px"
	 viewBox="0 0 180 180" enable-background="new 0 0 180 180" xml:space="preserve">
<g>
	<circle id="XMLID_2134_" fill="#F2F2F2" cx="90" cy="90" r="63.613"/>
	<g id="XMLID_194_">
		<g id="XMLID_2122_">
			<polygon id="XMLID_2127_" fill="#ADEBF6" points="68.7,113.021 40.94,108.035 40.94,80.277 68.7,85.262 			"/>
			<polygon id="XMLID_2126_" fill="#C9D1D6" points="68.7,85.262 83.444,70.518 55.451,65.531 40.94,80.277 			"/>
			<polygon id="XMLID_2123_" fill="#FFDB76" points="68.7,113.021 83.444,98.277 83.444,70.518 68.7,85.262 			"/>
		</g>
		<g id="XMLID_2048_">
			<g id="XMLID_2119_">
				<path fill="#333333" d="M111.58,92.971L83.064,87.85V59.322l28.516,5.121V92.971z M83.82,87.219l27.005,4.85V65.074
					l-27.005-4.85V87.219z"/>
			</g>
			<g id="XMLID_2118_">
				<path fill="#333333" d="M96.835,107.717l-28.517-5.121V74.066l28.517,5.119V107.717z M69.075,101.961l27.005,4.852V79.82
					l-27.005-4.85V101.961z"/>
			</g>
			<g id="XMLID_2115_">
				
					<rect x="93.189" y="99.212" transform="matrix(0.6927 -0.7212 0.7212 0.6927 -39.9202 105.4799)" fill="#333333" width="21.282" height="0.756"/>
			</g>
			<g id="XMLID_2112_">
				<polygon fill="#333333" points="96.73,80.158 96.186,79.637 110.93,64.287 111.475,64.812 				"/>
			</g>
			<g id="XMLID_2109_">
				
					<rect x="65.428" y="94.437" transform="matrix(0.6927 -0.7212 0.7212 0.6927 -45.0059 83.9939)" fill="#333333" width="21.283" height="0.756"/>
			</g>
			<g id="XMLID_2106_">
				
					<rect x="65.282" y="66.776" transform="matrix(0.694 -0.7199 0.7199 0.694 -25.1172 75.2057)" fill="#333333" width="21.282" height="0.756"/>
			</g>
			<path id="XMLID_2103_" fill="#ADEBF6" d="M98.901,106.82c0,1.352-1.094,2.443-2.444,2.443c-1.35,0-2.443-1.092-2.443-2.443
				c0-1.351,1.094-2.443,2.443-2.443C97.808,104.377,98.901,105.469,98.901,106.82z"/>
			<path id="XMLID_2100_" fill="#FF916E" d="M71.143,102.082c0,1.35-1.096,2.443-2.445,2.443c-1.351,0-2.444-1.094-2.444-2.443
				c0-1.35,1.094-2.443,2.444-2.443C70.047,99.639,71.143,100.732,71.143,102.082z"/>
			<path id="XMLID_2097_" fill="#FFDB76" d="M113.708,91.967c0,1.35-1.093,2.443-2.443,2.443c-1.351,0-2.444-1.094-2.444-2.443
				c0-1.35,1.094-2.445,2.444-2.445C112.615,89.521,113.708,90.617,113.708,91.967z"/>
			<path id="XMLID_2096_" fill="#C9D1D6" d="M85.947,87.23c0,1.348-1.093,2.443-2.443,2.443s-2.443-1.096-2.443-2.443
				c0-1.35,1.093-2.443,2.443-2.443S85.947,85.881,85.947,87.23z"/>
			<path id="XMLID_2093_" fill="#ADEBF6" d="M98.901,79.43c0,1.352-1.094,2.445-2.444,2.445c-1.35,0-2.443-1.094-2.443-2.445
				c0-1.348,1.094-2.443,2.443-2.443C97.808,76.986,98.901,78.082,98.901,79.43z"/>
			<path id="XMLID_2090_" fill="#FF916E" d="M71.143,74.693c0,1.35-1.096,2.443-2.445,2.443c-1.351,0-2.444-1.094-2.444-2.443
				c0-1.35,1.094-2.443,2.444-2.443C70.047,72.25,71.143,73.344,71.143,74.693z"/>
			<path id="XMLID_2085_" fill="#FFDB76" d="M113.708,64.578c0,1.35-1.093,2.443-2.443,2.443c-1.351,0-2.444-1.094-2.444-2.443
				c0-1.35,1.094-2.445,2.444-2.445C112.615,62.133,113.708,63.229,113.708,64.578z"/>
			<path id="XMLID_2049_" fill="#C9D1D6" d="M85.947,59.84c0,1.35-1.093,2.443-2.443,2.443s-2.443-1.094-2.443-2.443
				c0-1.35,1.093-2.443,2.443-2.443S85.947,58.49,85.947,59.84z"/>
		</g>
		<g id="XMLID_2029_">
			<g id="XMLID_2047_">
				<path fill="#333333" d="M138.993,108.23l-2.232-0.4l0.135-0.744l2.232,0.398L138.993,108.23z M134.528,107.428l-2.23-0.4
					l0.132-0.744l2.233,0.4L134.528,107.428z M139.438,107.061h-0.756v-2.268h0.756V107.061z M130.064,106.625l-2.231-0.4
					l0.132-0.742l2.232,0.4L130.064,106.625z M125.6,105.824l-2.232-0.4l0.135-0.744l2.232,0.4L125.6,105.824z M121.135,105.021
					l-2.232-0.4l0.135-0.744l2.232,0.4L121.135,105.021z M116.672,104.221l-2.233-0.4l0.133-0.744l2.233,0.4L116.672,104.221z
					 M112.206,103.418l-1.284-0.23v-1.596h0.756v0.965l0.661,0.117L112.206,103.418z M139.438,102.523h-0.756v-2.268h0.756V102.523z
					 M111.678,99.324h-0.756v-2.268h0.756V99.324z M139.438,97.988h-0.756v-2.268h0.756V97.988z M111.678,94.789h-0.756v-2.27h0.756
					V94.789z M139.438,93.451h-0.756v-2.268h0.756V93.451z M111.678,90.252h-0.756v-2.268h0.756V90.252z M139.438,88.916h-0.756
					v-2.268h0.756V88.916z M111.678,85.717h-0.756v-2.269h0.756V85.717z M139.438,84.381h-0.756v-2.27h0.756V84.381z M111.678,81.18
					h-0.756v-2.268h0.756V81.18z M138.744,80.424l-2.232-0.4l0.135-0.744l2.231,0.402L138.744,80.424z M134.279,79.623l-2.232-0.402
					l0.134-0.744l2.232,0.402L134.279,79.623z M129.815,78.82l-2.231-0.4l0.132-0.744l2.233,0.4L129.815,78.82z M125.351,78.02
					l-2.233-0.402l0.136-0.742l2.23,0.398L125.351,78.02z M120.886,77.217l-2.232-0.4l0.134-0.744l2.233,0.4L120.886,77.217z
					 M111.678,76.645h-0.756V74.66l1.168,0.209l-0.133,0.744l-0.279-0.049V76.645z M116.421,76.416l-2.231-0.4l0.133-0.744
					l2.232,0.4L116.421,76.416z"/>
			</g>
			<g id="XMLID_2034_">
				<g>
					<polygon fill="#333333" points="124.693,123.055 123.133,122.773 123.266,122.029 123.938,122.15 123.938,121.469 
						124.693,121.469 					"/>
				</g>
				<g>
					<path fill="#333333" d="M120.812,122.357l-2.321-0.418l0.133-0.742l2.322,0.416L120.812,122.357z M116.17,121.523l-2.32-0.416
						l0.135-0.746l2.32,0.418L116.17,121.523z M111.529,120.689l-2.32-0.416l0.132-0.744l2.321,0.418L111.529,120.689z
						 M106.888,119.855l-2.32-0.416l0.133-0.744l2.321,0.416L106.888,119.855z M102.245,119.023l-2.319-0.416l0.134-0.746
						l2.32,0.418L102.245,119.023z"/>
				</g>
				<g>
					<polygon fill="#333333" points="97.604,118.189 96.177,117.934 96.177,116.482 96.934,116.482 96.934,117.299 97.738,117.445 
											"/>
				</g>
				<g>
					<path fill="#333333" d="M96.934,114.166h-0.757v-2.318h0.757V114.166z M96.934,109.529h-0.757v-2.316h0.757V109.529z
						 M96.934,104.895h-0.757v-2.316h0.757V104.895z M96.934,100.26h-0.757v-2.318h0.757V100.26z M96.934,95.625h-0.757v-2.318
						h0.757V95.625z"/>
				</g>
				<g>
					<polygon fill="#333333" points="96.934,90.99 96.177,90.99 96.177,89.404 97.738,89.686 97.604,90.43 96.934,90.309 					"/>
				</g>
				<g>
					<path fill="#333333" d="M120.812,94.596l-2.321-0.414l0.133-0.746l2.322,0.416L120.812,94.596z M116.17,93.764l-2.32-0.418
						l0.135-0.742l2.32,0.416L116.17,93.764z M111.529,92.93l-2.32-0.418l0.133-0.742l2.32,0.416L111.529,92.93z M106.888,92.096
						l-2.32-0.416l0.133-0.746l2.321,0.42L106.888,92.096z M102.246,91.262l-2.32-0.416l0.134-0.744l2.32,0.416L102.246,91.262z"/>
				</g>
				<g>
					<polygon fill="#333333" points="124.693,95.975 123.938,95.975 123.938,95.158 123.133,95.014 123.266,94.27 124.693,94.525 
											"/>
				</g>
				<g>
					<path fill="#333333" d="M124.693,119.15h-0.756v-2.316h0.756V119.15z M124.693,114.516h-0.756v-2.318h0.756V114.516z
						 M124.693,109.879h-0.756v-2.316h0.756V109.879z M124.693,105.246h-0.756v-2.316h0.756V105.246z M124.693,100.611h-0.756
						v-2.318h0.756V100.611z"/>
				</g>
			</g>
			<g id="XMLID_2033_">
				<path fill="#333333" d="M124.589,122.863l-0.546-0.521l1.572-1.637l0.544,0.525L124.589,122.863z M127.731,119.594l-0.546-0.525
					l1.571-1.633l0.544,0.521L127.731,119.594z M130.873,116.322l-0.545-0.524l1.571-1.637l0.546,0.525L130.873,116.322z
					 M134.016,113.051l-0.544-0.523l1.569-1.637l0.546,0.525L134.016,113.051z M137.159,109.779l-0.546-0.523l1.572-1.635
					l0.544,0.523L137.159,109.779z"/>
			</g>
			<g id="XMLID_2032_">
				<path fill="#333333" d="M124.589,95.498l-0.546-0.523l1.572-1.635l0.544,0.523L124.589,95.498z M127.731,92.227l-0.546-0.523
					l1.571-1.637l0.544,0.525L127.731,92.227z M130.873,88.957l-0.545-0.525l1.571-1.635l0.546,0.523L130.873,88.957z
					 M134.016,85.684l-0.544-0.523l1.569-1.635l0.546,0.523L134.016,85.684z M137.159,82.414l-0.546-0.525l1.572-1.633l0.544,0.521
					L137.159,82.414z"/>
			</g>
			<g id="XMLID_2031_">
				<path fill="#333333" d="M96.827,118.088l-0.545-0.523l1.571-1.637l0.546,0.525L96.827,118.088z M99.971,114.816l-0.545-0.523
					l1.57-1.635l0.545,0.523L99.971,114.816z M103.112,111.545l-0.545-0.523l1.572-1.635l0.545,0.523L103.112,111.545z
					 M106.256,108.275l-0.545-0.525l1.57-1.635l0.545,0.523L106.256,108.275z M109.397,105.004l-0.545-0.523l1.571-1.637
					l0.546,0.525L109.397,105.004z"/>
			</g>
			<g id="XMLID_2030_">
				<path fill="#333333" d="M96.682,90.428l-0.546-0.524l1.572-1.637l0.544,0.523L96.682,90.428z M99.824,87.158l-0.545-0.525
					l1.57-1.635l0.545,0.523L99.824,87.158z M102.966,83.885l-0.545-0.524l1.571-1.635l0.546,0.523L102.966,83.885z M106.109,80.615
					l-0.545-0.525l1.57-1.635l0.545,0.523L106.109,80.615z M109.252,77.344l-0.546-0.524l1.572-1.637l0.544,0.525L109.252,77.344z"
					/>
			</g>
		</g>
	</g>
</g>
</svg>
