<?xml version="1.0" encoding="UTF-8"?>
<!DOCTYPE svg PUBLIC "-//W3C//DTD SVG 1.1//EN" "http://www.w3.org/Graphics/SVG/1.1/DTD/svg11.dtd">
<!-- Creator: CorelDRAW -->
<svg xmlns="http://www.w3.org/2000/svg" xml:space="preserve" width="2048px" height="2048px" style="shape-rendering:geometricPrecision; text-rendering:geometricPrecision; image-rendering:optimizeQuality; fill-rule:evenodd; clip-rule:evenodd"
viewBox="0 0 2048 2048"
 xmlns:xlink="http://www.w3.org/1999/xlink">
 <defs>
  <style type="text/css">
   <![CDATA[
    .fil0 {fill:none}
    .fil1 {fill:#424242;fill-rule:nonzero}
   ]]>
  </style>
 </defs>
 <g id="Layer_x0020_1">
  <metadata id="CorelCorpID_0Corel-Layer"/>
  <g id="_244889296">
   <rect id="_244888792" class="fil0" width="2048" height="2048"/>
   <rect id="_244885984" class="fil0" x="255.999" y="255.999" width="1536" height="1536"/>
  </g>
  <path class="fil1" d="M256.041 583.157l684.79 -259.746 -0.0271654 -0.0720473c3.93307,-1.49173 7.97599,-2.15669 11.941,-2.0811l839.257 0c17.6728,0 32.0008,14.328 32.0008,32.0008 0,12.6473 -7.33819,23.5807 -17.9882,28.7764l-448.086 259.416 -16.0004 -27.6248 16.0335 27.6933c-5.1378,2.9752 -10.7587,4.35827 -16.2945,4.30748l-1076.47 0c-17.6728,0 -32.0008,-14.328 -32.0008,-32.0008 0,-14.491 9.63308,-26.7307 22.8449,-30.6697zm701.757 -197.897l-518.223 196.566 893.911 0 339.525 -196.566 -715.212 0z"/>
  <path class="fil1" d="M1325.93 595.404l450.074 -260.567 48.0012 27.6248 0 839.846 -8.3752 21.3756 -450.074 497.451 -55.6264 -21.3756 0 -1076.73 16.0004 -27.6248zm434.073 -177.527l-386.072 223.513 0 975.511 386.072 -426.713 0 -772.312z"/>
  <path class="fil1" d="M1327.91 1667.76l392.168 -433.45 -757.639 0 -598.573 433.45 964.044 0zm464.086 -465.45l23.6256 21.3756 -448.053 495.218c-5.83583,7.80709 -15.1512,12.8587 -25.6465,12.8587l-1076.43 0 -0.302362 0 0 -0.0011811c-9.90473,-0.00826772 -19.6654,-4.59567 -25.9181,-13.2307 -10.3654,-14.3138 -7.16457,-34.3217 7.14922,-44.687l0.0271654 0.0366142 685.59 -496.463c5.49567,-4.44449 12.489,-7.10788 20.1071,-7.10788l839.848 0 0 0.0011811c7.65827,-0.00236221 15.3437,2.72835 21.4689,8.27009 13.1043,11.8559 14.1165,32.0941 2.26063,45.1985l-23.7295 -21.4689z"/>
  <path class="fil1" d="M296.551 1623.38l623.6 -451.574 0 -778.543 -632.084 221.555 8.48386 1008.56zm674.343 -409.412l-685.573 496.451c-5.42953,4.39725 -12.3272,7.05709 -19.8555,7.11969 -17.6728,0.147638 -32.1213,-14.0575 -32.2689,-31.7303l31.9996 -0.269292 -31.8756 0.250394 -9.17245 -1090.41c-1.42087,-14.3504 7.05473,-28.3477 21.2658,-33.3284l10.585 30.1984 -10.5 -30.1252 693.658 -243.138c3.97087,-1.76693 8.36812,-2.74961 12.9945,-2.74961 17.6728,0 32.0008,14.328 32.0008,32.0008l0 839.544 0 0.302362 -0.0011811 0c-0.00826772,9.90473 -4.59567,19.6654 -13.2307,25.9181l-0.0271654 -0.0366142z"/>
  <path class="fil1" d="M265.197 591.028l1076.73 0c17.6728,0 32.0008,14.328 32.0008,32.0008l0 1076.73c0,17.6728 -14.328,32.0008 -32.0008,32.0008l-1076.73 0c-17.6728,0 -32.0008,-14.328 -32.0008,-32.0008l0 -1076.73c0,-17.6728 14.328,-32.0008 32.0008,-32.0008z"/>
 </g>
</svg>
