<?xml version="1.0" encoding="UTF-8"?>
<!DOCTYPE svg PUBLIC "-//W3C//DTD SVG 1.1//EN" "http://www.w3.org/Graphics/SVG/1.1/DTD/svg11.dtd">
<!-- Creator: CorelDRAW -->
<svg xmlns="http://www.w3.org/2000/svg" xml:space="preserve" width="2048px" height="2048px" style="shape-rendering:geometricPrecision; text-rendering:geometricPrecision; image-rendering:optimizeQuality; fill-rule:evenodd; clip-rule:evenodd"
viewBox="0 0 2048 2048"
 xmlns:xlink="http://www.w3.org/1999/xlink">
 <defs>
  <style type="text/css">
   <![CDATA[
    .fil0 {fill:none}
    .fil1 {fill:#424242;fill-rule:nonzero}
   ]]>
  </style>
 </defs>
 <g id="Layer_x0020_1">
  <metadata id="CorelCorpID_0Corel-Layer"/>
  <g id="_388362192">
   <rect id="_388361712" class="fil0" width="2048" height="2048"/>
   <rect id="_388359552" class="fil0" x="255.999" y="255.999" width="1536" height="1536"/>
  </g>
  <g id="_388359744">
   <path id="_388359480" class="fil1" d="M1585.05 599.514l-497.493 -188.703 -686.601 0 325.942 188.703 858.152 0zm-481.204 -248.077l657.395 249.355c12.6839,3.78189 21.9319,15.5315 21.9319,29.4425 0,16.9665 -13.7551,30.7217 -30.7205,30.7217l-1033.41 0c-5.31378,0.0484252 -10.7102,-1.27913 -15.6425,-4.13622l15.3921 -26.5855 -15.3602 26.5205 -430.16 -249.039c-10.2248,-4.9878 -17.2689,-15.4843 -17.2689,-27.6248 0,-16.9665 13.7551,-30.7205 30.7205,-30.7205l805.684 0c3.80551,-0.0732284 7.68662,0.565748 11.4626,1.99725l-0.0259843 0.0696851z"/>
   <path id="_388359792" class="fil1" d="M688.071 656.696l-370.628 -214.572 0 741.416 370.628 409.643 0 -936.487zm-385.988 -294.29l432.069 250.142 15.3602 26.5205 0 1033.66 -53.4012 20.5205 -432.069 -477.551 -8.03977 -20.5205 0 -806.249 46.0807 -26.5193z"/>
   <path id="_388363032" class="fil1" d="M694.171 1691.1l-430.129 -475.407 22.6807 -20.5205 -22.7799 20.6103c-11.3823,-12.5811 -10.4102,-32.0091 2.16969,-43.3902 5.88071,-5.32087 13.2591,-7.94174 20.6103,-7.93938l0 -0.0011811 806.252 0c7.31339,0 14.0268,2.55591 19.3028,6.82323l658.164 476.602 0.0259843 -0.0354331c13.741,9.9508 16.8142,29.1579 6.86339,42.9 -6.00355,8.28898 -15.3732,12.6933 -24.8811,12.7016l0 0.0011811 -0.290551 0 -1033.37 0c-10.0748,0 -19.0181,-4.84961 -24.6201,-12.3449zm-338.407 -465.207l376.48 416.11 925.478 0 -574.628 -416.11 -727.33 0z"/>
   <path id="_388359432" class="fil1" d="M1733.13 1682.96l-658.147 -476.591 -0.0259843 0.0354331c-8.28898,-6.00355 -12.6933,-15.3732 -12.7016,-24.8823l-0.0011811 0 0 -0.28937 0 -805.959c0,-16.9665 13.7551,-30.7205 30.7217,-30.7205 4.44095,0 8.66221,0.94252 12.4736,2.63858l665.91 233.412 -10.0795 28.9205 10.1622 -28.9902c13.6417,4.78111 21.7784,18.2185 20.4142,31.9949l-8.80512 1046.79 -30.6 -0.240945 30.7193 0.258662c-0.141732,16.9654 -14.0126,30.6024 -30.978,30.4607 -7.22717,-0.0602363 -13.8496,-2.61378 -19.0618,-6.83504zm-609.434 -517.066l598.654 433.509 8.14371 -968.215 -606.798 -212.692 0 747.399z"/>
   <path id="_388362936" class="fil1" d="M718.791 608.348l1033.66 0c16.9654,0 30.7205,13.7539 30.7205,30.7205l0 1033.66c0,16.9665 -13.7551,30.7217 -30.7205,30.7217l-1033.66 0c-16.9654,0 -30.7205,-13.7551 -30.7205,-30.7217l0 -1033.66c0,-16.9665 13.7551,-30.7205 30.7205,-30.7205z"/>
  </g>
 </g>
</svg>
